<?xml version="1.0" encoding="utf-8"?>
<!-- Generator: Adobe Illustrator 24.2.3, SVG Export Plug-In . SVG Version: 6.00 Build 0)  -->
<svg version="1.1" id="antenna" xmlns="http://www.w3.org/2000/svg" xmlns:xlink="http://www.w3.org/1999/xlink" x="0px" y="0px"
	 viewBox="0 0 36 28" style="enable-background:new 0 0 36 28;" xml:space="preserve">
<path d="M15,26.7c-1.5-1.5-1.5-4,0.1-5.6s4.1-1.6,5.6-0.1s1.5,4-0.1,5.6S16.5,28.2,15,26.7z M0.7,12.4c0.1,0.1,0.2,0.2,0.3,0.2
	c1,0.7,2.5,0.5,3.3-0.6c0.4-0.7,1.1-1.4,1.7-2c6.7-6.7,17.5-6.9,24-0.4c0.7,0.7,1.3,1.4,1.8,2.1c0.7,1,2.2,1.3,3.2,0.5
	c1.1-0.8,1.3-2.2,0.6-3.3c-0.7-1-1.4-1.9-2.3-2.7C25-2,11.3-1.8,2.8,6.7C1.9,7.6,1.2,8.5,0.5,9.4C-0.2,10.4-0.1,11.7,0.7,12.4z
	 M7.4,19.2c0.2,0.2,0.4,0.3,0.6,0.4c1.1,0.6,2.5,0.1,3.1-1.1c0.4-0.7,0.9-1.4,1.5-2c3-3,7.8-3,10.6-0.2c0.6,0.6,1.1,1.3,1.4,2
	c0.5,1.1,1.9,1.6,3.1,1s1.7-2,1.1-3.1C28.3,15,27.5,14,26.6,13c-4.7-4.7-12.4-4.6-17.2,0.3c-1,1-1.8,2.1-2.4,3.3
	C6.5,17.4,6.7,18.5,7.4,19.2z"/>
</svg>
