<?xml version="1.0" encoding="utf-8"?>
<!-- Generator: Adobe Illustrator 24.2.3, SVG Export Plug-In . SVG Version: 6.00 Build 0)  -->
<svg version="1.1" id="battaryic" xmlns="http://www.w3.org/2000/svg" xmlns:xlink="http://www.w3.org/1999/xlink" x="0px" y="0px"
	 viewBox="0 0 17 9" style="enable-background:new 0 0 17 9;" xml:space="preserve">
<path d="M17,3.2c0,0.8,0,1.7,0,2.5l0,0c-0.1,0.6-0.6,1-1.1,0.9c-0.3,0-0.6,0-1,0c-0.1,0-0.1,0-0.1,0.1s0,0.3,0,0.4s0,0.2,0,0.4
	C14.7,8.4,14,9,13.2,9c-1.4,0-2.7,0-4.1,0C6.6,9,4.2,9,1.7,9C1.6,9,1.5,9,1.5,9C0.6,8.8,0,8,0,7.2c0-1.8,0-3.6,0-5.4
	c0-0.1,0-0.2,0-0.4C0.2,0.6,0.9,0,1.7,0c3.8,0,7.7,0,11.5,0c0.1,0,0.2,0,0.3,0c0.8,0.2,1.3,0.9,1.3,1.8c0,0.1,0,0.3,0,0.4
	c0,0.1,0,0.1,0.1,0.1c0.3,0,0.7,0,1,0s0.6,0.2,0.8,0.4C16.9,2.8,17,3,17,3.2z M7.4,7.9c0.6,0,1.2,0,1.7,0c1.3,0,2.7,0,4,0
	c0.1,0,0.2,0,0.3-0.1c0.2-0.1,0.3-0.3,0.3-0.6c0-1.2,0-2.4,0-3.7c0-0.6,0-1.1,0-1.7c0-0.2-0.1-0.4-0.3-0.6c-0.1-0.1-0.3-0.1-0.4-0.1
	c-3.8,0-7.6,0-11.4,0l0,0c-0.1,0-0.2,0-0.3,0.1C1.2,1.4,1.1,1.6,1.1,1.8s0,0.4,0,0.6c0,1.6,0,3.1,0,4.7c0,0.2,0,0.3,0.1,0.4
	c0.1,0.2,0.3,0.3,0.5,0.3C3.6,7.9,5.5,7.9,7.4,7.9z M14.9,4.5c0,0.3,0,0.7,0,1c0,0.1,0,0.1,0.1,0.1c0.3,0,0.6,0,0.9,0
	c0.1,0,0.1,0,0.1-0.1c0-0.7,0-1.4,0-2.1c0-0.1,0-0.1-0.1-0.1c-0.3,0-0.6,0-0.9,0c-0.1,0-0.1,0-0.1,0.1C14.9,3.8,14.9,4.2,14.9,4.5z
	 M13,6.8V2.2c0-0.2-0.2-0.4-0.4-0.4H2.1C1.9,1.8,1.7,2,1.7,2.2v4.5c0,0.2,0.2,0.4,0.4,0.4h10.5C12.8,7.2,13,7,13,6.8z"/>
</svg>
