<?xml version="1.0" encoding="utf-8"?>
<!-- Generator: Adobe Illustrator 19.0.0, SVG Export Plug-In . SVG Version: 6.00 Build 0)  -->
<svg version="1.1" id="clock" xmlns="http://www.w3.org/2000/svg" xmlns:xlink="http://www.w3.org/1999/xlink" x="0px" y="0px"
	 viewBox="-835 411.4 30 30" style="enable-background:new -835 411.4 30 30;" xml:space="preserve">
<path d="M-811.2,425.2h-1.2c-0.6,0-1.2,0.5-1.2,1.2c0,0.6,0.5,1.2,1.2,1.2h1.2c0.6,0,1.2-0.5,1.2-1.2
	C-810,425.8-810.5,425.2-811.2,425.2z M-820,432.9c-0.6,0-1.2,0.5-1.2,1.2v1.2c0,0.6,0.5,1.2,1.2,1.2s1.2-0.5,1.2-1.2v-1.2
	C-818.8,433.5-819.4,432.9-820,432.9z M-827.7,425.2h-1.1c-0.7,0-1.2,0.6-1.2,1.2c0,0.6,0.5,1.2,1.2,1.2h1.2c0.6,0,1.2-0.5,1.2-1.2
	C-826.5,425.8-827.1,425.2-827.7,425.2z M-820,416.4c-0.6,0-1.2,0.5-1.2,1.2v1.2c0,0.6,0.5,1.2,1.2,1.2s1.2-0.5,1.2-1.2v-1.2
	C-818.8,416.9-819.4,416.4-820,416.4z M-820,411.4c-8.3,0-15,6.7-15,15c0,8.3,6.7,15,15,15s15-6.7,15-15
	C-805,418.1-811.7,411.4-820,411.4z M-820,437.6c-6.2,0-11.2-5-11.2-11.2c0-6.2,5-11.2,11.2-11.2s11.2,5,11.2,11.2
	C-808.8,432.6-813.8,437.6-820,437.6z M-815,420l-4.5,4.5c-0.2,0-0.3-0.1-0.5-0.1s-0.5,0-0.7,0.1l-3.5-3.5c-0.5-0.5-1.2-0.5-1.6,0
	c-0.5,0.5-0.5,1.2,0,1.6l3.6,3.6c0,0.2-0.1,0.3-0.1,0.5c0,1.3,1,2.3,2.3,2.3s2.3-1,2.3-2.3c0-0.2,0-0.5-0.1-0.7l4.5-4.5
	c0.5-0.5,0.5-1.2,0-1.6C-813.8,419.5-814.5,419.5-815,420z"/>
</svg>
