<?xml version="1.0" encoding="utf-8"?>
<!-- Generator: Adobe Illustrator 24.2.3, SVG Export Plug-In . SVG Version: 6.00 Build 0)  -->
<svg version="1.1" id="outbattaryic" xmlns="http://www.w3.org/2000/svg" xmlns:xlink="http://www.w3.org/1999/xlink" x="0px"
	 y="0px" viewBox="0 0 18 12" style="enable-background:new 0 0 18 12;" xml:space="preserve">
<path d="M3.9,1.5c0.6,0,1.2,0,1.8,0c0.1,0,0.1,0,0.1-0.1c0-0.4,0-0.7-0.3-1C5.4,0.3,5.3,0.1,5.1,0.1C4.9,0,3.1,0,2.9,0
	C2.6,0.1,2.3,0.3,2.2,0.5C2,0.8,2,1,2,1.3c0,0.2,0,0.2,0.2,0.2C2.8,1.5,3.3,1.5,3.9,1.5L3.9,1.5z M14.1,1.5c0.6,0,1.2,0,1.8,0
	c0.1,0,0.1,0,0.1-0.1c0-0.4,0-0.7-0.3-1c-0.1-0.1-0.3-0.3-0.5-0.3C15,0,13.2,0,13,0c-0.3,0.1-0.6,0.2-0.8,0.5C12,0.7,12,1,12,1.3
	c0,0.2,0,0.2,0.2,0.2C12.9,1.5,13.5,1.5,14.1,1.5L14.1,1.5z M15.7,0.1C15.7,0.2,15.7,0.2,15.7,0.1C15.7,0.2,15.7,0.2,15.7,0.1z
	 M15.6,0.1L15.6,0.1L15.6,0.1z M17.9,11.2c-0.2,0.5-0.6,0.8-1.1,0.8C16,12,2,12,1.2,12C0.5,12,0,11.5,0,10.8c0-0.2,0-7,0-7.6
	C0,2.5,0.6,2,1.2,2c1.3,0,14.6,0,15.6,0c0.3,0,0.6,0.1,0.9,0.3c0.1,0.1,0.2,0.3,0.3,0.4c0,0.2,0,0.4,0,0.6C18,3.9,18,11,17.9,11.2z
	 M6.1,7.8c0-0.2-0.2-0.4-0.4-0.4c-0.5,0-2.4,0-2.9,0c-0.2,0-0.4,0.1-0.4,0.4c0,0.2,0.1,0.4,0.4,0.4s2.4,0,2.9,0
	C5.9,8.2,6.1,8,6.1,7.8z M10.5,7C10,6.8,9.5,6.5,9,6.3c0,0-0.1,0-0.1-0.1C9,5.5,9,4.7,9,4c0,0,0,0,0-0.1l0,0C8.5,5,7.9,6,7.4,7v0.1
	c0.5,0.2,1,0.5,1.5,0.7c0,0,0.1,0,0.1,0.1c0,0.8,0,1.5,0,2.3c0,0,0,0,0,0.1l0,0C9.5,9.2,10.1,8.2,10.5,7C10.6,7.1,10.6,7.1,10.5,7z
	 M15.2,7.4c-0.3,0-0.6,0-1,0c-0.1,0-0.1,0-0.1-0.1c0-0.2,0-0.3,0-0.5s0-0.3,0-0.5c0-0.1,0-0.1-0.1-0.2c0-0.1-0.2-0.2-0.3-0.2
	c-0.2,0-0.3,0.2-0.3,0.4c0,0.3,0,0.6,0,0.9c0,0.2,0,0.2-0.2,0.2c-0.3,0-0.6,0-0.9,0c-0.1,0-0.1,0-0.2,0c-0.2,0.1-0.3,0.2-0.2,0.4
	c0,0.2,0.2,0.3,0.4,0.3c0.3,0,0.6,0,0.9,0c0.1,0,0.2,0,0.2,0.2c0,0.3,0,0.6,0,0.9c0,0.3,0.3,0.5,0.6,0.3c0.1,0,0.2-0.1,0.2-0.4
	c0-0.3,0-0.6,0-0.9c0-0.1,0-0.2,0.2-0.2c0.3,0,0.6,0,0.9,0c0.1,0,0.3-0.1,0.4-0.2C15.7,7.7,15.6,7.4,15.2,7.4z"/>
</svg>
