<?xml version="1.0" encoding="utf-8"?>
<!-- Generator: Adobe Illustrator 24.2.3, SVG Export Plug-In . SVG Version: 6.00 Build 0)  -->
<svg version="1.1" id="gps" xmlns="http://www.w3.org/2000/svg" xmlns:xlink="http://www.w3.org/1999/xlink" x="0px" y="0px"
	 viewBox="0 0 47 47" style="enable-background:new 0 0 47 47;" xml:space="preserve">
<path d="M47,23.5C47.1,36,36.8,47.1,23.3,47C10.1,46.9-0.3,35.9,0,22.9C0.3,10.7,10.3-0.1,23.7,0C37,0.1,47.1,11,47,23.5z
	 M42.6,23.5c0.1-10.2-8.3-19.1-19-19.1c-10.5,0-19.1,8.5-19.1,19C4.4,33.8,13,42.6,23.7,42.6C34.3,42.5,42.7,33.7,42.6,23.5z
	 M22.1,36.4c-0.2-0.2-0.2-0.3-0.2-0.5c-0.7-2.8-1.4-5.6-2.1-8.5c-0.1-0.5-0.4-0.8-0.9-0.9c-2.8-0.6-5.6-1.2-8.5-1.8h-0.1
	c-0.1,0-0.4,0-0.4-0.2s0.2-0.2,0.3-0.3c1-0.5,2-1,3-1.4c5.9-2.7,11.7-5.5,17.6-8.2c0.2-0.1,0.4-0.3,0.6-0.2c0.2,0.2,0,0.4-0.1,0.6
	c-2.9,6.9-5.9,13.7-8.8,20.6C22.4,35.9,22.3,36.2,22.1,36.4z"/>
</svg>
