<?xml version="1.0" encoding="utf-8"?>
<!-- Generator: Adobe Illustrator 24.2.3, SVG Export Plug-In . SVG Version: 6.00 Build 0)  -->
<svg version="1.1" id="humiditic" xmlns="http://www.w3.org/2000/svg" xmlns:xlink="http://www.w3.org/1999/xlink" x="0px" y="0px"
	 viewBox="0 0 11 14" style="enable-background:new 0 0 11 14;" xml:space="preserve">
<path d="M5.2,14c-0.3,0-0.4,0-0.6-0.1c-0.8-0.1-1.5-0.5-2.2-1c-1-0.8-1.7-1.8-1.9-2.9S0.4,7.8,0.8,6.6C1.2,5.7,1.7,5,2.2,4.3
	c0.5-0.8,1.1-1.4,1.7-2.2C4.2,1.5,4.7,1,5.1,0.4c0.3-0.4,0.6-0.3,0.8,0c0.6,0.9,1.4,1.9,2,2.8c0.6,0.8,1.3,1.7,1.8,2.5
	c0.4,0.6,0.6,1.4,0.8,2.2c0.1,0.5,0.1,1,0.1,1.5c-0.1,0.6-0.3,1.3-0.6,1.8c-0.3,0.5-0.6,1-1,1.4c-0.5,0.5-1.1,0.9-1.9,1.1
	c-0.4,0.1-0.8,0.1-1,0.3H5.9C5.6,14,5.4,14,5.2,14z M7.7,6.1c-0.3,0-0.3,0.1-0.4,0.3c-1.4,1.4-2.8,2.8-4.2,4.2c0,0,0,0-0.1,0.1
	c0,0.1,0,0.5,0.1,0.6c0.3,0.1,0.5,0.1,0.6-0.1c1-1,1.9-2,2.9-3.1C7,7.8,7.5,7.3,7.9,6.9C8,6.7,8,6.5,8,6.4C7.9,6.2,7.8,6.1,7.7,6.1z
	 M3,6.5c0,0.8,0.5,1.3,1.3,1.3s1.3-0.5,1.3-1.3S5,5.2,4.2,5.2C3.6,5.2,3,5.9,3,6.5z M6.8,9.7c-0.6,0-1.3,0.6-1.3,1.3
	c0,0.8,0.5,1.3,1.3,1.3S8,11.7,8,10.9S7.4,9.7,6.8,9.7z M4.2,7c0.3,0,0.4-0.3,0.4-0.4c0-0.3-0.1-0.5-0.4-0.5C4,6.1,3.8,6.4,3.8,6.5
	C3.8,6.7,4,7,4.2,7z M6.8,10.4c-0.3,0-0.4,0.3-0.4,0.4c0,0.3,0.3,0.5,0.4,0.4c0.3,0,0.4-0.3,0.4-0.4C7.2,10.7,7,10.4,6.8,10.4z"/>
</svg>
