<?xml version="1.0" encoding="utf-8"?>
<!-- Generator: Adobe Illustrator 19.0.0, SVG Export Plug-In . SVG Version: 6.00 Build 0)  -->
<svg version="1.1" id="key" xmlns="http://www.w3.org/2000/svg" xmlns:xlink="http://www.w3.org/1999/xlink" x="0px" y="0px"
	 viewBox="-835 411.4 30 30" style="enable-background:new -835 411.4 30 30;" xml:space="preserve">
<path d="M-835,438.2c0-0.9,0-1.8,0-2.7c0-0.3,0.1-0.5,0.3-0.7c2.9-2.9,5.8-5.8,8.8-8.7c0.2-0.2,0.3-0.4,0.2-0.8
	c-2-6.1,1.7-12.3,7.7-13.6c6-1.4,11.9,2.6,12.9,8.6c0.9,5.9-3.1,11.4-9,12.2c-1.6,0.2-3.3,0.1-4.8-0.4c-0.3-0.1-0.4-0.1-0.6,0.2
	c-0.4,0.5-0.9,0.9-1.3,1.4c-0.2,0.2-0.4,0.3-0.7,0.3c-0.9,0-1.9,0-2.8,0c-0.3,0-0.4,0.1-0.4,0.4c0,0.9,0,1.9,0,2.8
	c0,0.4-0.1,0.5-0.5,0.5c-0.9,0-1.9,0-2.8,0c-0.5,0-0.5,0-0.5,0.5c0,0.9,0,1.8,0,2.8c0,0.3-0.1,0.5-0.5,0.5c-1.8,0-3.6,0-5.4,0
	c-0.5-0.1-0.6-0.2-0.6-0.5C-835,440-835,439.1-835,438.2z M-813.1,422.6c1.7,0,3.1-1.3,3.1-3c0-1.7-1.3-3.1-3-3.1s-3.1,1.3-3.1,3.1
	C-816.2,421.3-814.9,422.6-813.1,422.6z"/>
</svg>
