<?xml version="1.0" encoding="utf-8"?>
<!-- Generator: Adobe Illustrator 24.2.3, SVG Export Plug-In . SVG Version: 6.00 Build 0)  -->
<svg version="1.1" id="lan" xmlns="http://www.w3.org/2000/svg" xmlns:xlink="http://www.w3.org/1999/xlink" x="0px" y="0px"
	 viewBox="0 0 22 20" style="enable-background:new 0 0 22 20;" xml:space="preserve">
<path d="M15.5,0h-9C6.2,0,5.9,0.3,5.9,0.6v4.1c0,0.3,0.3,0.6,0.6,0.6h8.9C15.7,5.3,16,5,16,4.7V0.6C16.1,0.3,15.8,0,15.5,0z"/>
<path d="M21.4,14.7H19v-3.2c0-0.8-0.7-1.5-1.5-1.5h-5.6V6.8h-1.8V10H4.5C3.6,10,3,10.7,3,11.5v3.2H0.6C0.3,14.7,0,15,0,15.3v4.1
	C0,19.7,0.3,20,0.6,20h6.5c0.3,0,0.6-0.3,0.6-0.6v-4.1c0-0.3-0.3-0.6-0.6-0.6H4.8v-2.9h12.5v2.9h-2.4c-0.3,0-0.6,0.3-0.6,0.6v4.1
	c0,0.3,0.3,0.6,0.6,0.6h6.5c0.3,0,0.6-0.3,0.6-0.6v-4.1C22,15,21.7,14.7,21.4,14.7z"/>
</svg>
