<?xml version="1.0" encoding="utf-8"?>
<!-- Generator: Adobe Illustrator 24.2.3, SVG Export Plug-In . SVG Version: 6.00 Build 0)  -->
<svg version="1.1" id="mobile" xmlns="http://www.w3.org/2000/svg" xmlns:xlink="http://www.w3.org/1999/xlink" x="0px" y="0px"
	 viewBox="0 0 26 16" style="enable-background:new 0 0 26 16;" xml:space="preserve">
<path d="M25.9,15.6c-0.2,0.3-0.4,0.4-0.8,0.4c-1.1,0-2.1,0-3.2,0c-0.6,0-0.8-0.2-0.8-0.8c0-0.1,0-0.3,0-0.4c0-8.6,0-5,0-13.7
	c0-1,0.1-1.2,1.1-1.2c0.9,0,1.9,0,2.8,0c0.3,0,0.6,0.1,0.8,0.4C25.9,9.5,25.9,6.5,25.9,15.6z M14.2,15.1c0,0.7,0.2,0.9,0.9,0.9
	c1,0,2,0,3,0c0.7,0,0.9-0.2,0.9-0.9c0-5.7,0-5.6,0-11.3c0-0.7-0.2-0.9-0.9-0.9c-1,0-2,0-3,0c-0.7,0-0.8,0.2-0.8,0.9
	C14.2,6.6,14.2,12.3,14.2,15.1z M11.9,6.7c0-0.7-0.2-0.9-0.9-0.9c-1,0-2,0-3,0C7.3,5.8,7.1,6,7.1,6.7c0,3.4,0,5.1,0,8.4
	C7.1,15.8,7.3,16,8,16c1,0,2,0,3,0c0.7,0,0.9-0.2,0.9-0.9c0-1.7,0-3.4,0-5C11.9,8.4,11.9,8.4,11.9,6.7z M4.8,9.7
	c0-0.6-0.2-0.8-0.8-0.8c-1,0-2.1,0-3.1,0c-0.6,0-0.8,0.2-0.8,0.8s0,1.1,0,1.7c0,1.3,0,2.5,0,3.8C0.1,15.8,0.3,16,1,16c1,0,2,0,3,0
	c0.6,0,0.8-0.2,0.8-0.8c0-0.9,0-1.8,0-2.7C4.8,11.5,4.8,10.6,4.8,9.7z"/>
</svg>
