<?xml version="1.0" encoding="utf-8"?>
<!-- Generator: Adobe Illustrator 24.2.3, SVG Export Plug-In . SVG Version: 6.00 Build 0)  -->
<svg version="1.1" id="networkg" xmlns="http://www.w3.org/2000/svg" xmlns:xlink="http://www.w3.org/1999/xlink" x="0px" y="0px"
	 viewBox="0 0 25 30" style="enable-background:new 0 0 25 30;" xml:space="preserve">
<path d="M24.4,25.9H15c-0.3-0.5-0.6-0.9-1.1-1.1l0,0c0-0.5,0-1.1,0-1.7c0.5-0.1,1-0.2,1.4-0.3c4.6-1.3,7.4-4.2,8.6-8.8
	c0.1-0.5,0.2-1,0.3-1.5c0-0.6,0-1.2,0-1.8C24,10.1,24,9.6,23.8,9c-1-4.6-4.9-8.2-9.6-8.9c-0.3,0-0.6-0.1-0.9-0.1c-0.5,0-1.1,0-1.6,0
	c-0.6,0.1-1.3,0.2-1.9,0.3C5.3,1.5,2.4,4.4,1.2,9C1,9.6,1,10.2,0.9,10.7c0,0.5,0,1.1,0,1.6C1,13,1,13.6,1.2,14.3
	c0.9,3.5,3,6.1,6.3,7.7c1.1,0.5,2.2,0.9,3.4,1c0.2,0,0.3,0.1,0.3,0.3c0,0.4,0,0.9,0,1.3v0.1c-0.5,0.3-0.8,0.6-1.1,1.1H0.6
	c-0.4,0-0.6,0.3-0.6,0.6v1.4c0,0.4,0.3,0.6,0.6,0.6H10c0.5,0.9,1.4,1.5,2.5,1.5s2-0.6,2.5-1.5h9.4c0.4,0,0.6-0.3,0.6-0.6v-1.4
	C25,26.2,24.7,25.9,24.4,25.9z M16.7,20.1c0.6-1.2,1.1-2.4,1.4-3.7c0.9,0,1.7,0,2.7,0C19.8,18,18.4,19.3,16.7,20.1z M21.7,9.1
	c0.4,1.7,0.4,3.3,0,5c0,0.2-0.1,0.3-0.3,0.3c-1,0-1.9,0-2.9,0c0.2-1.8,0.2-3.6,0-5.4c0.1,0,0.2,0,0.3,0c0.9,0,1.8,0,2.7,0
	C21.6,8.8,21.7,8.9,21.7,9.1z M20.8,6.8c-0.9,0-1.8,0-2.7,0c-0.3-1.3-0.8-2.6-1.4-3.8C18.4,3.9,19.8,5.1,20.8,6.8z M11.3,2.6
	c0.8-0.7,1.6-0.7,2.4,0s1.3,1.7,1.8,2.7c0.2,0.5,0.3,1,0.5,1.5c-2.4,0-4.7,0-7,0C9.5,5.2,10,3.7,11.3,2.6z M8.3,3
	C7.7,4.2,7.2,5.5,6.9,6.8c-0.9,0-1.7,0-2.7,0C5.2,5.1,6.6,3.9,8.3,3z M3.3,14.1c-0.5-1.7-0.5-3.5,0-5.2c0,0,0,0,0-0.1
	c1,0,2.1,0,3.2,0c-0.2,1.8-0.2,3.6,0,5.4c-0.1,0-0.1,0-0.1,0c-0.9,0-1.9,0-2.8,0C3.4,14.3,3.3,14.2,3.3,14.1z M4.2,16.3
	c0.9,0,1.8,0,2.7,0c0.3,1.3,0.8,2.6,1.5,3.8C6.6,19.3,5.2,18,4.2,16.3z M8.6,14.1c-0.2-1.7-0.2-3.3,0-5c0-0.1,0-0.1,0.1-0.2
	c0.1,0,0.2,0,0.3,0c2.4,0,4.8,0,7.2,0c0.2,0,0.3,0.1,0.4,0.3c0.2,1.6,0.2,3.2,0,4.9c0,0.2-0.1,0.3-0.3,0.3c-2.4,0-4.9,0-7.3,0
	C8.7,14.3,8.6,14.3,8.6,14.1z M9.5,17.8c-0.2-0.4-0.3-0.9-0.5-1.4c2.3,0,4.7,0,7,0c-0.5,1.5-1,2.9-2.1,4.1l0,0
	c-0.9,0.8-1.7,0.8-2.6,0C10.4,19.7,9.9,18.8,9.5,17.8z"/>
</svg>
