<?xml version="1.0" encoding="utf-8"?>
<!-- Generator: Adobe Illustrator 19.0.0, SVG Export Plug-In . SVG Version: 6.00 Build 0)  -->
<svg version="1.1" id="poweroff" xmlns="http://www.w3.org/2000/svg" xmlns:xlink="http://www.w3.org/1999/xlink" x="0px" y="0px"
	 viewBox="-835 410.4 30 31" style="enable-background:new -835 410.4 30 31;" xml:space="preserve">
<path d="M-821.9,441.4c-2.6-0.4-5-1.4-7-3c-7.5-5.7-7.2-17.2,0.3-22.8c1-0.7,2.4-0.6,3.2,0.4c0.9,1,0.9,2.3,0,3.2
	c-0.1,0.1-0.4,0.4-0.6,0.6c-3,2.6-4,5.9-3,9.8s3.6,6.2,7.6,6.9c5.6,1,10.9-3.4,10.9-9.2c0-3-1.1-5.5-3.4-7.5
	c-1.4-1.1-1.7-2.4-0.9-3.6c0.9-1.1,2.3-1.4,3.4-0.6c3.2,2.4,5.2,5.6,5.6,9.6c1,7.6-4,14.5-11.5,16.1c-0.3,0-0.6,0.1-0.9,0.1
	C-819.4,441.4-820.6,441.4-821.9,441.4z M-820.6,410.4c-1.4,0.6-1.9,1.7-1.9,3.2c0,3.4,0,7,0,10.5c0,0.4,0,0.7,0.1,1.1
	c0.1,1,1,1.7,2,1.9s1.9-0.3,2.4-1.1c0.4-0.6,0.4-1.3,0.4-1.9c0-3.4,0-7,0-10.5c0-1.4-0.4-2.6-1.7-3.2
	C-819.7,410.4-820.1,410.4-820.6,410.4z"/>
</svg>
