<?xml version="1.0" encoding="utf-8"?>
<!-- Generator: Adobe Illustrator 19.0.0, SVG Export Plug-In . SVG Version: 6.00 Build 0)  -->
<svg version="1.1" id="race" xmlns="http://www.w3.org/2000/svg" xmlns:xlink="http://www.w3.org/1999/xlink" x="0px" y="0px"
	 viewBox="-829 416.4 42 20" style="enable-background:new -829 416.4 42 20;" xml:space="preserve">
<path d="M-787,427.8c-2.6,2.7-5.3,5.3-7.9,8c-0.6,0.6-1.1,0.6-1.7,0c-2.9-3-5.8-5.9-8.7-8.8c-0.3-0.3-0.6-0.8-1.1-0.2
	c-0.6,0.6-0.2,0.8,0.1,1.2c1.7,1.7,3.4,3.5,5.1,5.2c0.2,0.2,0.4,0.4,0.6,0.6c0.3,0.3,0.6,0.7,0.2,1.2c-0.4,0.4-0.9,0.2-1.2-0.2
	c-1.9-1.9-3.8-3.8-5.7-5.8c-0.5-0.6-0.9-0.6-1.4,0c-1.8,1.9-3.6,3.7-5.4,5.5c-0.2,0.2-0.5,0.4-0.7,0.6c-0.3,0.1-0.5,0.1-0.8-0.2
	c-0.2-0.2-0.3-0.5-0.1-0.8s0.4-0.6,0.6-0.8c1.8-1.8,3.6-3.7,5.4-5.5c0.4-0.4,0.5-0.7,0.1-1.2c-0.5-0.5-0.7-0.2-1,0.1
	c-2.9,2.9-5.8,5.8-8.6,8.8c-0.9,0.9-1.1,0.9-2,0c-2.6-2.6-5.2-5.3-7.8-7.9c0-0.3,0-0.5,0-0.8c3.2-3,6.4-6.2,9.6-9.4
	c1.3-1.3,1.3-1.3,2.6,0c2.7,2.8,5.5,5.5,8.2,8.3c0.5,0.5,0.8,0.5,1.3,0c2.7-2.8,5.4-5.5,8.2-8.3c1.3-1.3,1.3-1.3,2.6,0
	c3.2,3.2,6.4,6.5,9.6,9.7C-787,427.3-787,427.6-787,427.8z M-815.5,425.1c0-0.1-0.1-0.2-0.1-0.2c-0.7-0.7-1.4-1.4-2-2.1
	c-0.2-0.2-0.4-0.1-0.6,0.1c-2.3,1.8-2.3,1.9-0.3,3.9c0.1,0.1,0.2,0.2,0.3,0.3c0.3,0.4,0.6,0.4,1,0c0.5-0.5,1-1,1.4-1.5
	C-815.7,425.5-815.5,425.4-815.5,425.1z M-795.5,425.2c-0.1-0.1-0.1-0.2-0.2-0.2c-0.1-0.1-0.1-0.2-0.2-0.3c-0.6-0.6-1.2-1.3-1.8-1.9
	c-0.3-0.3-0.6-0.1-0.8,0.1c-0.5,0.5-1,1.1-1.5,1.5c-0.5,0.5-0.5,0.8,0,1.3c1.8,1.8,1.8,1.9,3.6,0
	C-796.2,425.6-795.8,425.4-795.5,425.2z M-818.1,432.4c0.1-0.1,0.3-0.2,0.4-0.3c0.3-0.3,0.7-0.7,1-1c1-1,1-1,0-2
	c-1.2-1.2-1.2-1.2-2.3,0c-1.3,1.3-1.3,1.3,0.1,2.7C-818.6,432-818.5,432.3-818.1,432.4z M-795.7,430.1c-0.5-0.4-1.1-0.8-1.5-1.2
	c-1.2-1.1-0.9-1.1-2,0c-1.2,1.2-1.2,1.2,0,2.4c1.3,1.3,1.3,1.3,2.6,0C-796.3,430.9-796,430.7-795.7,430.1z M-823,427.3
	c0.1-0.1,0.3-0.2,0.4-0.3c0.4-0.4,0.8-0.9,1.2-1.2c0.8-0.6,0.7-1.1,0-1.7c-1.4-1.3-1.3-1.3-2.7,0c-1.1,1.1-1.1,1.1,0,2.3
	C-823.7,426.8-823.5,427.2-823,427.3z M-793,427.3c0.1-0.1,0.2-0.1,0.3-0.2c0.6-0.6,1.5-1.1,1.7-1.9c0.1-0.6-0.8-1-1.2-1.4
	c-0.2-0.2-0.4-0.4-0.7-0.7c-0.2-0.2-0.4-0.3-0.6-0.1c-0.6,0.6-1.5,1.1-1.7,1.9c-0.1,0.6,0.8,1,1.2,1.5c0.2,0.3,0.5,0.5,0.7,0.7
	C-793.2,427.2-793.1,427.3-793,427.3z M-823,427.9c-0.3,0-2,1.6-1.9,1.9c0,0.1,0.1,0.2,0.2,0.3c0.7,0.7,1.3,1.3,2,2
	c0.2,0.2,0.4,0.2,0.6,0c0.5-0.6,1.4-1,1.5-1.7c0.1-0.5-0.7-0.9-1.1-1.3c-0.3-0.3-0.6-0.6-0.9-0.9C-822.8,428.1-822.9,428-823,427.9z
	 M-791.1,429.8c0-0.3-1.6-2-1.8-2c-0.1,0-0.3,0.1-0.4,0.2c-0.6,0.6-1.2,1.2-1.9,1.9c-0.3,0.3-0.3,0.5,0,0.8c1.5,1.8,1.5,1.8,3.1,0.1
	c0.2-0.2,0.5-0.5,0.7-0.7C-791.2,430.1-791.1,429.9-791.1,429.8z M-819.9,420c0,0.3,1.8,2.1,2,2.1c0.1,0,0.3-0.1,0.4-0.2
	c1.7-1.4,1.7-1.4,0.1-3c-0.3-0.2-0.5-0.8-0.9-0.5C-819,418.9-819.5,419.4-819.9,420z M-796,419.9c-0.5-0.5-1-1.2-1.7-1.4
	c-0.9-0.3-1.2,0.9-1.8,1.3c-0.2,0.2-0.7,0.4-0.3,0.8c0,0.1,0.1,0.1,0.1,0.1c1.5,1.7,1.5,1.7,3,0.2c0.2-0.2,0.3-0.3,0.4-0.5
	C-796.2,420.3-796.1,420.2-796,419.9z M-811.2,425.4c0-0.3-0.1-0.4-0.3-0.5c-0.4-0.4-0.8-0.7-1.1-1.1c-0.4-0.5-0.7-0.5-1.2,0
	c-1.3,1.4-1.4,1.4,0,2.7c0.3,0.3,0.5,0.8,0.9,0.6C-812.2,426.7-811.7,426-811.2,425.4z M-802.8,427.2c0.4-0.4,0.7-0.9,1.2-1.4
	c0.6-0.5,0.6-0.8,0.1-1.4c-1.3-1.2-1.3-1.3-2.5,0c-1.1,1.1-1,0.9,0,1.9C-803.7,426.6-803.5,427-802.8,427.2z"/>
</svg>
