<?xml version="1.0" encoding="utf-8"?>
<!-- Generator: Adobe Illustrator 19.0.0, SVG Export Plug-In . SVG Version: 6.00 Build 0)  -->
<svg version="1.1" id="reader" xmlns="http://www.w3.org/2000/svg" xmlns:xlink="http://www.w3.org/1999/xlink" x="0px" y="0px"
	 viewBox="-835 411.4 30 30" style="enable-background:new -835 411.4 30 30;" xml:space="preserve">
<path d="M-808.5,425.1c-0.8,7.7-8.3,14-10.8,16c-0.5,0.3-1.2,0.3-1.7,0c-2.7-1.8-10.2-8-11-16.2c-0.5-6.2,4-12,10-12.8
	c0.3,0,0.5,0.2,0.5,0.5v6.5c0,0.2-0.2,0.3-0.3,0.3c-1.7,0.7-3,2.3-3,4.2c0,2.5,1.8,4.5,4.3,4.7c2.2,0.2,4.2-1.3,4.7-3.3
	c0-0.2,0.2-0.3,0.3-0.3h6.5C-808.7,424.6-808.5,424.9-808.5,425.1z M-812.5,420.7c0.2,0.7-0.2,1.3-0.7,1.7c-0.2,0-0.3,0-0.5,0
	c-0.5,0-1-0.3-1.2-0.8c-0.7-1.7-1.8-2.8-3.5-3.3c-0.7-0.2-1-0.8-0.8-1.5c0.2-0.7,1-1,1.7-0.8C-815.2,416.7-813.3,418.4-812.5,420.7z
	 M-818.3,423.7c0,1-0.8,1.8-1.8,1.8s-1.8-0.8-1.8-1.8s0.8-1.8,1.8-1.8C-819.2,421.7-818.3,422.6-818.3,423.7z M-809,422.4
	c-0.2,0-0.2,0-0.3,0c-0.7,0-1.2-0.3-1.2-1c-0.8-3.7-3.8-6.7-7.7-7.5c-0.7-0.2-1.2-0.8-1-1.5c0.2-0.7,0.8-1.2,1.5-1
	c4.8,1,8.5,4.7,9.7,9.5C-807.8,421.6-808.3,422.4-809,422.4z"/>
</svg>
