<?xml version="1.0" encoding="utf-8"?>
<!-- Generator: Adobe Illustrator 24.2.3, SVG Export Plug-In . SVG Version: 6.00 Build 0)  -->
<svg version="1.1" id="satellite" xmlns="http://www.w3.org/2000/svg" xmlns:xlink="http://www.w3.org/1999/xlink" x="0px" y="0px"
	 viewBox="0 0 13 13" style="enable-background:new 0 0 13 13;" xml:space="preserve">
<path d="M3.2,0c0.1,0,0.1,0,0.2,0.1c0.4,0.4,0.8,0.7,1.2,1.1C5.1,1.7,5.6,2.1,6,2.6C6.1,2.7,6.4,3,6.5,3.1c0.1,0.1,0.1,0.2,0,0.5
	C6.3,3.7,6.3,3.8,6.1,3.8C5.9,4,5.8,4.1,5.6,4.4v0.1c0.1,0.1,0.2,0.2,0.4,0.4c0,0,0,0,0.1,0c0.2-0.2,0.4-0.4,0.6-0.6
	C6.9,4,7.1,4,7.3,4c0.1,0,0.1,0,0.1,0c0.2-0.2,0.4-0.2,0.7-0.4c0.4,0,0.7,0.1,0.9,0.5c0.4,0.4,0.4,0.9,0,1.4C9,5.6,9,5.7,9,5.8
	C9,6,9,6.3,8.7,6.4C8.6,6.5,8.5,6.6,8.4,6.9V7c0.1,0,0.2,0.1,0.4,0.2h0.1C9,7.1,9.2,6.9,9.5,6.6l0,0c0.1-0.1,0.2-0.1,0.4,0
	C10,6.7,10.3,7,10.4,7.2c0.6,0.6,1.3,1.3,1.9,1.9c0.1,0.1,0.2,0.2,0.4,0.5c0.2,0.2,0.1,0.4,0,0.6c-0.2,0.2-0.4,0.4-0.6,0.6
	c-0.4,0.5-0.8,0.8-1.3,1.2c-0.1,0.1-0.2,0.2-0.2,0.2c-0.1,0.1-0.2,0.1-0.4,0c0-0.2-0.1-0.4-0.4-0.6C9.2,11,8.6,10.4,7.9,9.7
	C7.8,9.6,7.6,9.3,7.3,9.1C7.2,9,7.2,8.9,7.3,8.7c0.1-0.1,0.2-0.2,0.2-0.4C7.8,8.2,7.9,8,8.2,7.8V7.7C8,7.6,8,7.6,7.9,7.4H7.8
	C7.6,7.7,7.3,7.8,7.2,8C7.1,8.2,7,8.2,7,8.3H6.9C6.7,7.9,6.6,7.8,6.5,7.6C6.4,7.2,6.1,7.1,6,6.9C5.7,6.6,5.4,6.4,5.1,6.3
	C5,6.1,4.8,6.1,4.7,6.1V6C5,5.8,5.2,5.6,5.3,5.4c0,0,0.1-0.1,0-0.1c0-0.1-0.1-0.2-0.2-0.4H5C4.8,5.1,4.6,5.3,4.5,5.4l0,0
	c-0.2,0.2-0.4,0.2-0.7,0C3.4,5.3,3.2,5,3,4.7C2.4,4.1,1.7,3.4,1.1,2.8C0.9,2.7,0.9,2.7,0.8,2.6c0-0.1,0-0.2,0-0.4
	C1.1,2,1.2,1.9,1.3,1.7c0.6-0.5,1.1-0.9,1.5-1.4L3,0.1C3.1,0,3.1,0,3.2,0z M5,3.8L5,3.8c0.2-0.2,0.4-0.4,0.5-0.5c0,0,0,0,0-0.1
	C5.3,3.1,5.1,3,5,2.7c0,0,0,0-0.1,0C4.7,3,4.6,3.1,4.4,3.2v0.1C4.6,3.4,4.7,3.7,5,3.8L5,3.8z M11.5,9.2C11.5,9.2,11.3,9.2,11.5,9.2
	c-0.2,0.2-0.4,0.4-0.6,0.5v0.1c0.1,0.1,0.4,0.4,0.5,0.5c0,0,0,0,0.1,0c0.1-0.1,0.4-0.4,0.5-0.5c0,0,0,0,0-0.1
	C11.8,9.6,11.6,9.5,11.5,9.2L11.5,9.2z M11.1,10.6L11.1,10.6c-0.1-0.2-0.4-0.4-0.5-0.5c0,0,0,0-0.1,0c-0.1,0.1-0.4,0.2-0.5,0.5
	c0,0,0,0,0,0.1c0.1,0.1,0.4,0.4,0.5,0.5c0,0,0,0,0.1,0C10.8,11,11,10.9,11.1,10.6L11.1,10.6z M4.6,4.1L4.6,4.1
	C4.5,3.9,4.3,3.8,4.1,3.7c0,0,0,0-0.1,0C3.9,3.8,3.8,3.9,3.5,4.1v0.1C3.7,4.4,3.9,4.6,4,4.7c0,0,0,0,0.1,0C4.3,4.5,4.5,4.4,4.6,4.1
	L4.6,4.1z M9.7,7.6L9.7,7.6C9.5,7.7,9.3,7.8,9.2,8c0,0,0,0,0,0.1c0.1,0.1,0.4,0.2,0.5,0.4h0.1c0.1-0.1,0.2-0.2,0.5-0.4V8
	C10,7.9,9.9,7.7,9.7,7.6C9.8,7.6,9.7,7.6,9.7,7.6z M3.8,1.5L3.8,1.5C3.5,1.4,3.4,1.2,3.3,1.1H3.2C3.1,1.2,2.8,1.4,2.7,1.5
	c0,0,0,0,0,0.1C2.8,1.8,3.1,2,3.2,2.1h0.1C3.4,1.9,3.5,1.8,3.8,1.5C3.8,1.7,3.8,1.5,3.8,1.5z M2.4,3L2.4,3c0.2-0.2,0.4-0.4,0.5-0.5
	c0,0,0,0,0-0.1C2.7,2.2,2.6,2.1,2.4,1.9H2.2C2.1,2.1,2,2.2,1.9,2.4c0,0,0,0,0,0.1C2,2.6,2.1,2.7,2.4,3L2.4,3z M9.5,9
	C9.5,8.9,9.3,8.9,9.5,9C9.2,8.7,9.1,8.6,8.9,8.4H8.7C8.6,8.6,8.5,8.7,8.4,8.9c0,0,0,0,0,0.1c0.1,0.1,0.4,0.2,0.5,0.5
	C9,9.6,9,9.5,9,9.5C9.1,9.2,9.2,9.1,9.5,9C9.3,9,9.3,9,9.5,9z M10.5,8.4L10.5,8.4c-0.1,0.2-0.4,0.4-0.5,0.5c0,0,0,0,0,0.1
	c0.2,0.1,0.4,0.2,0.5,0.5h0.1C10.8,9.3,11,9.1,11.1,9V8.9C11,8.7,10.8,8.5,10.5,8.4C10.6,8.4,10.6,8.4,10.5,8.4z M9.7,10.3L9.7,10.3
	C9.9,10,10,9.9,10.2,9.8c0,0,0,0,0-0.1C10,9.6,9.9,9.5,9.8,9.3H9.7C9.6,9.5,9.3,9.6,9.2,9.7v0.1C9.3,9.9,9.5,10.2,9.7,10.3L9.7,10.3
	z M4.1,3L4.1,3c0.2-0.2,0.4-0.4,0.5-0.5c0,0,0,0,0-0.1C4.5,2.2,4.3,2.1,4.1,1.9H4C3.9,2.1,3.7,2.2,3.5,2.4c0,0,0,0,0,0.1
	C3.8,2.6,3.9,2.7,4.1,3C4,3,4,3,4.1,3z M3.2,3.8L3.2,3.8c0.2-0.1,0.4-0.4,0.5-0.5V3.2C3.5,3.1,3.4,3,3.3,2.8H3.2
	C3,3,2.8,3.1,2.7,3.2v0.1C2.8,3.4,3.1,3.7,3.2,3.8L3.2,3.8z M2.7,6.1c-0.4,0-0.6,0.1-0.8,0.2C1.7,6.5,1.5,6.6,1.7,6.9
	c0,0.2,0.1,0.4,0.1,0.6C2,7.9,2.2,8.4,2.6,8.9h0.1C2.8,8.7,2.8,8.6,3,8.4V8.3C2.8,8.2,2.7,8,2.6,7.8C2.5,7.7,2.4,7.6,2.4,7.3
	c0-0.1,0-0.1,0.1-0.1s0.2,0,0.4,0.1c0.4,0.1,0.6,0.4,0.8,0.5C4.1,8.2,4.5,8.5,4.8,9C5.1,9.3,5.4,9.7,5.6,10c0.1,0.1,0.1,0.4,0.2,0.5
	c0,0.1,0,0.2-0.2,0.1c0,0-0.1,0-0.1-0.1C5.1,10.4,5,10.3,4.7,10H4.6c-0.2,0.1-0.4,0.1-0.5,0.2c-0.1,0-0.1,0.1,0,0.1
	c0.4,0.2,0.6,0.5,0.9,0.6s0.6,0.2,0.9,0.4c0.2,0,0.4,0,0.5-0.1c0.1-0.2,0.2-0.5,0.4-0.7C7,10.2,7,9.8,6.9,9.5
	C6.7,8.7,6.5,8.2,6.1,7.7C5.8,7.2,5.3,6.7,4.7,6.5C4.1,6.3,3.5,6.1,3.1,6.1C3,6,2.8,6.1,2.7,6.1z M3,10.9c0.2-0.1,0.2-0.4,0.2-0.7
	c0-0.1,0-0.1,0-0.1c0.4-0.2,0.7-0.5,1.1-0.7C4.4,9.2,4.4,9.2,4.4,9C4.3,8.9,4.1,8.7,4,8.6c-0.1-0.1-0.2,0-0.4,0.1
	c-0.1,0-0.1,0-0.1,0.1C3.3,9.1,3.2,9.5,3,9.8c0,0,0,0-0.1,0S2.6,9.7,2.5,9.7C2.1,9.7,1.9,10,2,10.4c0,0.4,0.2,0.5,0.6,0.5
	C2.7,11,2.8,10.9,3,10.9z M0.1,11.6c0.2,0.7,0.7,1.2,1.5,1.3c0.2,0,0.5,0,0.7,0c0.1,0,0.4,0,0.5-0.1l0,0c0-0.1,0-0.1,0-0.2
	c0-0.1-0.1-0.1-0.2-0.1c-0.1,0-0.4,0-0.5,0c-0.4,0-0.7-0.1-0.9-0.4c-0.4-0.2-0.6-0.6-0.7-1.1c0-0.2,0-0.5,0-0.7v-0.1c0,0,0,0,0-0.1
	c-0.1,0-0.2,0-0.2,0.1C0,10.5,0,10.8,0,11S0,11.5,0.1,11.6z M2.7,12.1c0.1,0,0.1-0.1,0.1-0.1c0-0.1,0-0.1-0.1-0.1s-0.2,0-0.4,0
	c-0.4,0-0.6-0.1-0.8-0.4c-0.1-0.4-0.2-0.6-0.2-0.9c0-0.1,0-0.1,0-0.2c0-0.1-0.1-0.1-0.1-0.1c-0.1,0-0.1,0-0.1,0.1c0,0.1,0,0.2,0,0.4
	c0,0.4,0,0.6,0.1,0.8c0.2,0.5,0.7,0.7,1.2,0.7C2.4,12.1,2.6,12.1,2.7,12.1z"/>
</svg>
