<?xml version="1.0" encoding="utf-8"?>
<!-- Generator: Adobe Illustrator 19.0.0, SVG Export Plug-In . SVG Version: 6.00 Build 0)  -->
<svg version="1.1" id="settings" xmlns="http://www.w3.org/2000/svg" xmlns:xlink="http://www.w3.org/1999/xlink" x="0px" y="0px"
	 viewBox="-835 411.4 30 30" style="enable-background:new -835 411.4 30 30;" xml:space="preserve">
<path d="M-805.2,424.2c-0.1-0.3-0.3-0.6-0.7-0.6h-1.4c-0.5-0.1-0.8-0.5-1-1c-0.3-0.8-0.6-1.6-1-2.4c-0.2-0.3-0.1-0.6,0.1-0.8l1.2-1
	c0.2-0.2,0.3-0.6,0.1-0.9c-0.9-1.2-2-2.2-3.1-3.1c-0.3-0.2-0.7-0.2-0.9,0.1l-1.1,1.1c-0.2,0.2-0.6,0.3-0.8,0.1c-1-0.6-2.2-1-3.4-1.3
	l0,0v-2.2c0-0.3-0.2-0.6-0.6-0.7c-0.7,0-1.5-0.1-2.2-0.1s-1.5,0.1-2.2,0.2c-0.3,0-0.6,0.3-0.6,0.7v2.1l0,0c-1.2,0.3-2.3,0.7-3.3,1.3
	c-0.3,0.2-0.6,0.1-0.8-0.1l-1.2-1.1c-0.2-0.3-0.6-0.3-0.9-0.1c-1.1,0.9-2.2,1.9-3,3.1c-0.2,0.2-0.2,0.6,0,0.9l1.1,1.1
	c0.2,0.2,0.3,0.6,0.1,0.8c-0.4,0.7-0.8,1.5-1,2.4c-0.1,0.5-0.5,0.8-1,1h-1.3c-0.3,0-0.6,0.2-0.7,0.6c-0.1,0.6-0.2,1.4-0.2,2.1
	c0,0.7,0.1,1.5,0.2,2.2c0.1,0.3,0.3,0.6,0.7,0.6h1.4c0.5,0.1,0.8,0.5,1,1c0.3,0.8,0.6,1.6,1,2.4c0.2,0.3,0.1,0.6-0.1,0.8l-1.2,1
	c-0.2,0.2-0.3,0.6-0.1,0.9c0.9,1.2,2,2.2,3.1,3.1c0.3,0.2,0.7,0.2,0.9-0.1l1.1-1.1c0.2-0.2,0.6-0.3,0.8-0.1c1,0.6,2.2,1,3.4,1.3l0,0
	v2.1c0,0.3,0.2,0.6,0.6,0.7c0.7,0.1,1.4,0.2,2.2,0.2s1.5-0.1,2.2-0.2c0.3,0,0.6-0.3,0.6-0.7v-2.1l0,0c1.2-0.3,2.3-0.7,3.4-1.3
	c0.3-0.2,0.6-0.1,0.8,0.1l1.1,1.1c0.2,0.2,0.6,0.3,0.9,0.1c1.2-0.9,2.2-1.9,3.1-3.1c0.2-0.3,0.2-0.7-0.1-0.9l-1.1-1.1
	c-0.2-0.2-0.3-0.6-0.1-0.8c0.4-0.7,0.8-1.5,1-2.4c0.1-0.5,0.5-0.8,1-1h1.4c0.3,0,0.6-0.2,0.7-0.6c0.1-0.7,0.2-1.5,0.2-2.2
	C-805,425.7-805.1,424.9-805.2,424.2z M-813.7,427.4c-0.4,2.7-2.6,4.9-5.3,5.3c-4.3,0.7-8-3-7.4-7.4c0.4-2.7,2.6-4.9,5.3-5.3
	C-816.7,419.4-813,423.1-813.7,427.4z"/>
</svg>
