<?xml version="1.0" encoding="utf-8"?>
<!-- Generator: Adobe Illustrator 24.2.3, SVG Export Plug-In . SVG Version: 6.00 Build 0)  -->
<svg version="1.1" id="usb" xmlns="http://www.w3.org/2000/svg" xmlns:xlink="http://www.w3.org/1999/xlink" x="0px" y="0px"
	 viewBox="0 0 34 13" style="enable-background:new 0 0 34 13;" xml:space="preserve">
<path id="XMLID_40_" d="M1.7,1.1c0.4-0.5,1-0.6,1.7-0.6c1.8,0,3.6,0,5.4,0c5.5,0,11,0,16.4,0c0.5,0,0.5,0,0.5,0.5
	c0,0.2,0.1,0.3,0.3,0.3c0.4,0,0.4,0,0.4,0.4c0,0.2,0,0.4,0,0.5c0,0.6-0.1,0.5,0.5,0.5c1.4,0,2.9,0,4.3,0c0.8,0,1.6,0,2.4,0
	c0.3,0,0.4,0,0.4,0.3c0,2.3,0,4.7,0,7c0,0.3-0.1,0.3-0.4,0.3c-2.3,0-4.5,0-6.8,0c-0.3,0-0.4,0.1-0.4,0.4c0,0.3,0,0.6,0,0.8
	s-0.1,0.3-0.3,0.3c-0.4,0-0.5,0-0.4,0.4c0,0.3-0.2,0.3-0.4,0.3c-4.5,0-8.9,0-13.4,0c-2.8,0-5.5,0-8.3,0c-1.2,0-2-0.5-2.5-1.5
	c-0.7-1-1-2.3-1.1-3.6c-0.1-1.7,0.1-3.5,0.8-5.1C1,1.9,1.3,1.4,1.7,1.1z M20.4,3.7c-0.2-0.2-0.7-0.4-1.2-0.5c-0.9-0.1-1.9-0.1-2.8,0
	c-0.3,0-0.3,0.2-0.3,0.4c0,1.9,0,3.8,0,5.7c0,0.2,0.1,0.4,0.3,0.4c1,0.1,2,0.2,3,0c0.3,0,0.6-0.1,0.9-0.3c1.2-0.6,1.4-2.3,0.4-3.1
	c-0.2-0.1-0.1-0.2,0-0.4C21.2,5.4,21.2,4.4,20.4,3.7z M9.1,9.2c0.4-0.4,0.6-0.9,0.7-1.5c0.1-1.4,0-2.7,0-4.1c0-0.2-0.1-0.3-0.3-0.3
	c-0.3,0-0.7,0-1,0S8.1,3.4,8.1,3.7c0,1.1,0,2.2,0,3.3c0,0.2,0,0.5-0.1,0.7C7.9,8.1,7.6,8.4,7.1,8.4s-0.9-0.2-1-0.7
	c0-0.3,0-0.5,0-0.7c0-1.1,0-2.3,0-3.4c0-0.2,0-0.3-0.2-0.3c-0.4,0-0.8,0-1.2,0c-0.2,0-0.3,0.1-0.3,0.3c0,1.4,0,2.8,0,4.2
	c0,0.6,0.3,1.1,0.7,1.5C6,10.2,8.1,10.2,9.1,9.2z M14.7,9.3c0.4-0.4,0.5-0.7,0.6-1.1C15.4,7.1,15,6.4,14,6c-0.4-0.2-0.9-0.4-1.3-0.6
	c-0.2-0.1-0.4-0.2-0.3-0.5c0-0.3,0.3-0.3,0.5-0.3c0.5-0.1,1,0,1.4,0.2c0.2,0.1,0.4,0,0.4-0.2c0.1-0.3,0.2-0.5,0.3-0.8
	c0.1-0.2,0-0.3-0.2-0.4c-1-0.4-2-0.5-3-0.1c-1.3,0.5-1.6,2.2-0.6,3.2C11.4,6.7,11.7,6.8,12,7c0.4,0.2,0.8,0.3,1.1,0.5
	c0.2,0.1,0.4,0.3,0.4,0.6S13.2,8.4,13,8.5c-0.6,0.1-1.2,0-1.7-0.3c-0.3-0.1-0.4,0-0.5,0.2s-0.2,0.5-0.3,0.7s0,0.4,0.2,0.5
	C11.8,10,12.9,10,14,9.7C14.3,9.7,14.6,9.5,14.7,9.3z M30.8,3.9h-0.1c-0.4,0-0.7,0-1.1,0c-0.2,0-0.2,0.1-0.2,0.2c0,0.3,0,0.7,0,1
	c0,0.2,0,0.2,0.2,0.2c0.3,0,0.7,0,1,0c0.2,0,0.2-0.1,0.2-0.2c0-0.3,0-0.6,0-1C30.9,4.1,30.9,4,30.8,3.9z M29.5,9
	c0.1,0.1,0.1,0.1,0.2,0.1c0.3,0,0.7,0,1,0c0.1,0,0.2-0.1,0.2-0.2c0-0.4,0-0.7,0-1.1c0-0.2-0.1-0.2-0.2-0.2c-0.3,0-0.6,0-1,0
	c-0.2,0-0.2,0.1-0.2,0.2c0,0.3,0,0.6,0,1C29.5,8.9,29.5,9,29.5,9z M19.4,7.2C18.9,7,18.4,7,18,7c-0.1,0-0.1,0.1-0.1,0.2
	c0,0.3,0,0.6,0,1c0,0.1,0.1,0.2,0.2,0.2c0.5,0,0.9,0,1.3-0.1c0.3-0.1,0.4-0.7,0.2-0.9C19.4,7.3,19.4,7.3,19.4,7.2z M18.5,4.6
	c-0.7,0-0.7,0-0.7,0.6c0,0.1,0,0.2,0,0.3c0,0.1,0,0.1,0.1,0.1c0.4,0,0.8,0,1.2-0.1c0.3-0.1,0.4-0.6,0.1-0.8
	C19,4.6,18.7,4.6,18.5,4.6z"/>
</svg>
