<?xml version="1.0" encoding="utf-8"?>
<!-- Generator: Adobe Illustrator 24.2.3, SVG Export Plug-In . SVG Version: 6.00 Build 0)  -->
<svg version="1.1" id="wifi_signal" xmlns="http://www.w3.org/2000/svg" xmlns:xlink="http://www.w3.org/1999/xlink" x="0px"
	 y="0px" viewBox="0 0 28 20" style="enable-background:new 0 0 28 20;" xml:space="preserve">
<path d="M8.7,14.7L8.7,14.7L14,20l5.3-5.3C16.4,11.8,11.6,11.8,8.7,14.7z M23.7,10.3l-2.6,2.6C17.2,9,10.8,9,6.9,12.9l0,0l-2.6-2.6
	l0,0C9.7,5,18.3,5,23.7,10.3z M28.1,5.8l-2.6,2.6C19.1,2,8.8,2,2.4,8.4l0,0l-2.6-2.6l0,0C7.7-1.9,20.3-2,28.1,5.8z M18.8,20l1.6-4.6
	h1.3l1.6,4.6h-1.2l-0.3-0.9h-1.4L19.9,20H18.8z M21.4,18.2l-0.5-1.5l-0.5,1.5H21.4z M27.1,16.9c0,0.2,0,0.4-0.1,0.6
	s-0.2,0.4-0.3,0.5c-0.1,0.1-0.2,0.2-0.3,0.2c-0.1,0.1-0.2,0.1-0.3,0.2c-0.1,0-0.2,0.1-0.4,0.1c-0.1,0-0.3,0-0.4,0h-0.6V20h-1.2v-4.6
	h1.8c0.3,0,0.5,0,0.7,0.1c0.2,0,0.4,0.1,0.5,0.2c0.2,0.1,0.3,0.3,0.4,0.5C27.1,16.4,27.1,16.6,27.1,16.9z M25.9,16.9
	c0-0.1,0-0.2-0.1-0.3c-0.1-0.1-0.1-0.2-0.2-0.2s-0.2-0.1-0.3-0.1c-0.1,0-0.2,0-0.4,0h-0.2v1.4h0.1c0.1,0,0.2,0,0.3,0
	c0.1,0,0.2,0,0.3,0c0.1,0,0.1,0,0.2-0.1c0.1,0,0.1-0.1,0.2-0.1c0.1-0.1,0.1-0.2,0.2-0.2C25.9,17.1,25.9,17,25.9,16.9z"/>
</svg>
