<?xml version="1.0" encoding="utf-8"?>
<!-- Generator: Adobe Illustrator 19.0.0, SVG Export Plug-In . SVG Version: 6.00 Build 0)  -->
<svg version="1.1" id="Layer_1" xmlns="http://www.w3.org/2000/svg" xmlns:xlink="http://www.w3.org/1999/xlink" x="0px" y="0px"
	 viewBox="0 0 150 30" style="enable-background:new 0 0 150 30;" xml:space="preserve">
<style type="text/css">
	.st0{fill:#FFFFFF;}
	.st1{fill:#FF0302;}
</style>
<g id="XMLID_29_">
	<path id="XMLID_28_" class="st0" d="M51.9,0c2.4,0,4.7,0,7.1,0c0,0.6,0,1.2,0,1.8c-0.7,0-1.4,0-2.2,0c0,0.6,0,1.3,0,1.9
		C59.1,4,61.3,5,63.1,6.6c0.4-0.4,0.9-0.9,1.3-1.3c0.3,0.3,0.7,0.6,1,1C65,6.6,64.5,7.1,64,7.5c0.7,0.8,1.3,1.7,1.8,2.7
		c1.4,2.8,1.5,6.2,0.4,9.1c-0.9,2.3-2.5,4.3-4.6,5.6c-1.1,0.7-2.3,1.2-3.6,1.5c0.9,0,1.8,0,2.6,0c-0.6,0.5-1.1,1-1.7,1.5
		c-8.1,0-16.3,0-24.4,0c-10.1,0-20.2,0-30.4,0c0.1-0.5,0.3-1,0.4-1.5c14.7,0,29.5,0,44.2,0c1.2,0,2.4,0,3.6,0
		c-0.3-0.2-0.6-0.2-0.9-0.3c-2.6-0.9-4.8-2.7-6.2-5.1c-3.4,0-6.8,0-10.1,0c1-1,2-2,3-3c2.6,0,5.1,0,7.7,0c0.8,2.5,2.6,4.7,4.9,5.9
		c2.4,1.3,5.4,1.5,8,0.5c2.6-0.9,4.7-2.9,5.7-5.4c1.1-2.6,1-5.6-0.2-8.2c-1.2-2.5-3.5-4.5-6.2-5.3c-2.6-0.8-5.6-0.4-7.9,1.1
		c-1.1,0.7-2,1.6-2.8,2.6c-3.1,0-6.2,0-9.3,0c1-0.9,1.9-1.9,2.9-2.8c0.8-0.1,1.6,0,2.5,0c1.4,0,2.9,0,4.3,0c1.8-1.6,4.1-2.6,6.5-2.8
		c0-0.6,0-1.2,0-1.8c-0.8,0-1.5,0-2.3,0C51.9,1.2,51.9,0.6,51.9,0z M3.1,11.7c-0.2,0.6-0.3,1.2-0.2,1.8c0.2,1.1,0.9,2.1,1.8,2.7
		c0.4,0.2,0.9,0.3,1.3,0.3c1.5,0,3.1,0,4.6,0c0.2,0,0.3,0.2,0.4,0.4c0,0.3,0,0.6-0.1,0.9C11,18,10.7,18,10.6,18c-2.7,0-5.3,0-8,0
		c-0.2,0-0.3,0.2-0.5,0.3c-0.8,0.9-1.5,1.8-2.1,2.9c4.1,0,8.1,0,12.2,0c0.5,0,1-0.2,1.4-0.5c0.9-0.6,1.5-1.5,1.8-2.5
		c0.3-0.7,0.2-1.6,0-2.3c-0.2-0.8-0.6-1.7-1.4-2.2c-0.4-0.3-0.9-0.4-1.4-0.4c-1.5,0-2.9,0-4.4,0c-0.4,0-0.6-0.3-0.9-0.5
		c0-0.4,0.2-1.1,0.8-1.1c2.6,0,5.2,0,7.8,0c1-1,2-2.1,2.8-3.3c-4.1,0-8.2,0-12.3,0C6.1,8.6,5.6,8.8,5.2,9C4.3,9.7,3.5,10.6,3.1,11.7
		z M18.4,11.8c1.5,0,3,0,4.5,0c-1.1,3.1-2.3,6.3-3.4,9.4c1.5,0,3.1,0,4.6,0c1.2-3.1,2.3-6.3,3.5-9.4c0.9,0,1.8,0,2.8,0
		c0.2,0,0.4-0.1,0.5-0.3c0.6-0.5,1-1,1.5-1.6c0.3-0.4,0.7-0.9,0.9-1.4c-4,0-8,0-12,0c-0.5,0.3-0.9,0.8-1.4,1.3
		C19.3,10.5,18.8,11.1,18.4,11.8z M66.5,21.2c1.5,0,3.1,0,4.6,0c0.6-1.5,1.1-3.1,1.7-4.6c2.2,0,4.4,0,6.6,0c1.4,0,2.7-0.5,3.7-1.4
		c0.9-0.8,1.5-1.9,1.5-3.1c0-1.1-0.3-2.2-1.1-3c-0.3-0.4-0.8-0.6-1.3-0.6c-3.7,0-7.4,0-11.1,0C69.6,12.8,68,17,66.5,21.2z
		 M74.5,11.8c1.6,0,3.3,0,4.9,0c0.2,0.1,0.4,0.3,0.5,0.5c0.1,0.1,0,0.2-0.1,0.3c-0.1,0.3-0.3,0.5-0.5,0.7c-1.2,0-2.5,0-3.7,0
		c-0.2,0-0.3,0.1-0.4,0.2c-0.7,0.6-1.3,1.2-2,1.8C73.6,14.2,74.1,13,74.5,11.8z M82.1,21.2c4,0,8,0,12.1,0c0.7-0.6,1.3-1.2,1.9-1.8
		c0.4-0.4,0.7-0.9,1-1.4c-3.1,0-6.1,0-9.2,0c0.2-0.5,0.3-1,0.5-1.4c1.6,0,3.2,0,4.7,0c1.1-1.1,2.3-2.2,3.4-3.2c-1.8,0-3.7,0-5.5,0
		c-0.7,0.7-1.5,1.4-2.2,2.2c0.4-1.2,0.9-2.5,1.4-3.7c2.4,0,4.8,0,7.2,0c0.2,0,0.4-0.1,0.6-0.3c0.6-0.5,1-1.1,1.5-1.7
		c0.3-0.4,0.6-0.8,0.9-1.3c-4.6,0-9.1,0-13.7,0C85.2,12.8,83.7,17,82.1,21.2z M96.6,21.2c1.5,0,3.1,0,4.6,0c0.5-1.4,1-2.8,1.5-4.2
		c0-0.2,0.2-0.2,0.3-0.3c1.6,1.5,3.3,3,4.9,4.5c3.2,0,6.4,0,9.5,0c1.5-4.2,3.1-8.5,4.6-12.7c-1.5,0-3.1,0-4.6,0
		c-1.5,4.2-3,8.4-4.6,12.5c-1.5-1.5-3-3.1-4.5-4.6c1.3-0.1,2.6-0.3,3.7-0.8c0.8-0.4,1.6-1,2.1-1.8c0.4-0.9,0.4-1.8,0.3-2.8
		c-0.1-0.8-0.4-1.6-1.1-2.1c-0.5-0.4-1.1-0.5-1.7-0.4c-3.5,0-7,0-10.4,0C99.7,12.8,98.2,17,96.6,21.2z M109.4,11.8
		c0.2,0,0.4,0,0.5,0.2c0.1,0.4,0.1,0.9-0.2,1.2c-0.1,0.2-0.3,0.2-0.5,0.2c-1.3,0-2.5,0-3.8,0c-0.7,0.7-1.4,1.4-2.1,2.1
		c0.4-1.2,0.9-2.5,1.3-3.7C106.2,11.8,107.8,11.8,109.4,11.8z M121,13.8c-0.3,1-0.3,2.2-0.1,3.2c0.2,0.8,0.5,1.4,1,2
		c0.8,0.9,1.9,1.4,3,1.8c1.8,0.5,3.7,0.5,5.6,0.5c0.1,0,0.2-0.1,0.3-0.2c1-0.8,1.8-1.9,2.6-3c-1.9,0-3.8,0-5.7,0
		c-0.3,0-0.7-0.2-0.9-0.3c-0.6-0.4-1.1-1-1.4-1.6c-0.2-0.3-0.3-0.7-0.2-1.1c0.1-1,0.6-1.9,1.3-2.5c0.3-0.3,0.7-0.6,1.2-0.6
		c2,0,4.1,0,6.1,0c1.1-0.9,2.1-2.1,3-3.2c-3.4,0-6.7,0-10.1,0c-1.4,0-2.8,0.8-3.8,1.8C122.1,11.3,121.4,12.5,121,13.8z M139.1,13.1
		c-2,2.6-4.1,5.2-6.1,7.8c-0.1,0.1-0.1,0.2-0.1,0.4c3.4,0,6.7,0,10.1,0c0.3-0.1,0.5-0.4,0.7-0.6c0.6-0.6,1.1-1.3,1.6-2
		c0.2,0.9,0.3,1.8,0.5,2.6c1.4,0,2.8,0,4.3,0c-0.5-3.2-1-6.4-1.5-9.5c-0.1-0.8-0.3-1.7-0.6-2.4c-0.2-0.3-0.4-0.7-0.8-0.7
		c-1.3,0-2.7,0-4,0c-0.5,0.2-0.9,0.7-1.3,1.1C140.9,10.8,140,11.9,139.1,13.1z M144.4,12.4c0.3,1.9,0.6,3.7,0.8,5.6
		c-1.6,0-3.2,0-4.9,0c0-0.1,0-0.3,0.1-0.4C141.8,15.9,143.1,14.2,144.4,12.4z M45.6,15.1c0-0.9,0.3-1.8,0.5-2.7
		c-4.6,0-9.2-0.1-13.8-0.1c-0.9,0.9-1.9,1.9-2.8,2.8C34.8,15.1,40.2,15.1,45.6,15.1z M96.7,27.9c16.7,0,33.4,0,50.1,0
		c0.1-0.5,0.3-1,0.4-1.5c-16.7,0-33.4,0-50.1,0C97,26.9,96.9,27.4,96.7,27.9z"/>
	<path id="XMLID_565_" class="st1" d="M52,7.7c1.6-0.7,3.3-0.9,5-0.5c2.4,0.5,4.5,2.1,5.6,4.2c0.9,1.7,1.1,3.7,0.7,5.6
		c-0.5,2.3-2.1,4.4-4.3,5.5c-1.7,0.9-3.8,1.1-5.7,0.6c-2.8-0.7-5.1-2.9-5.8-5.7c-4.9,0-9.8,0-14.7,0c0.5-0.5,1-1,1.5-1.5
		c4.4,0,8.9,0,13.3-0.1c0.1,0,0.3,0,0.4,0c0.2,2.6,2,5,4.4,6c1.6,0.7,3.4,0.8,5.1,0.3c1.5-0.4,2.8-1.4,3.7-2.6
		c0.8-1.1,1.4-2.4,1.5-3.8c0.1-1.4-0.1-2.9-0.8-4.1c-0.8-1.5-2.1-2.7-3.6-3.3c-1.5-0.7-3.3-0.8-5-0.3c-1.9,0.5-3.5,1.8-4.4,3.5
		c-4.9,0-9.7,0-14.6,0c0.4-0.5,0.9-1,1.3-1.6c4.4,0,8.9,0,13.3,0C49.8,9,50.8,8.2,52,7.7z M59.5,15.6c-0.3-0.3-0.7-0.6-1-0.9
		c-0.8,0-1.6,0-2.4,0c-0.3,0.3-0.6,0.6-0.9,0.9C56.6,15.6,58,15.6,59.5,15.6z M63.6,29.9c2,0,4,0,6.1,0c0.1,0,0.2-0.1,0.3-0.2
		c0.5-0.5,1-1.1,1.4-1.7c-1.5,0-3,0-4.5,0c0.7-1.8,1.3-3.7,2-5.5c-0.9,0-1.8,0-2.7,0C65.4,24.9,64.5,27.4,63.6,29.9z M73.9,29.9
		c0.9-2.5,1.8-5,2.7-7.4c-0.9,0-1.8,0-2.7,0c-0.9,2.5-1.8,5-2.7,7.4C72.1,29.9,73,29.9,73.9,29.9z M77.8,27.7
		c0.1,0.6,0.2,1.2,0.4,1.8c0.1,0.2,0.2,0.4,0.5,0.4c0.8,0,1.6,0,2.4,0c0.6-0.3,0.9-0.9,1.3-1.4c1.5-2,3-4,4.6-6c-1,0-1.9,0-2.9,0
		c-1.3,1.7-2.6,3.3-3.9,5c-0.2-1.7-0.4-3.3-0.7-5c-0.8,0-1.6,0-2.5,0C77.3,24.2,77.5,26,77.8,27.7z M84.6,29.9c2.4,0,4.7,0,7.1,0
		c0.6-0.6,1.3-1.1,1.7-1.9c-1.8,0-3.6,0-5.4,0c0.1-0.3,0.2-0.6,0.3-0.8c0.9,0,1.9,0,2.8,0c0.7-0.6,1.3-1.3,2-1.9c-1.1,0-2.2,0-3.3,0
		c-0.4,0.4-0.9,0.8-1.3,1.3c0.3-0.7,0.5-1.4,0.8-2.2c1.4,0,2.8,0,4.2,0c0.3,0,0.5-0.2,0.6-0.4c0.4-0.5,0.9-1,1.2-1.5
		c-2.7,0-5.3,0-8,0C86.4,24.9,85.5,27.4,84.6,29.9z M61.3,28.9c-0.1,0.3,0,0.8,0.4,0.9c0.8,0.2,1.7-0.3,1.9-1.1
		c0.1-0.3-0.1-0.5-0.3-0.7c-0.3-0.2-0.6-0.2-0.9-0.1C61.9,28.1,61.5,28.5,61.3,28.9z"/>
</g>
</svg>
